<svg width="77" height="28" viewBox="0 0 77 28" fill="none" xmlns="http://www.w3.org/2000/svg">
<rect x="1" y="1" width="26" height="26" rx="10" fill="url(#paint0_linear_1859_96)"/>
<path d="M14.2439 6L7 10.0244V18.0732L14.2439 22.5L21.4878 18.0732V10.0244L14.2439 6Z" stroke="white" stroke-width="1.5" stroke-linejoin="round"/>
<path d="M14.2439 22.5L10.622 12.0366M10.622 12.0366L14.2439 6M10.622 12.0366L7 18.0732" stroke="white" stroke-width="1.5"/>
<path d="M7 10.0244L17.4634 15.2561M17.4634 15.2561L21.4878 18.0732M17.4634 15.2561L21.4878 10.0244M17.4634 15.2561L14.2439 22.5" stroke="white" stroke-width="1.5"/>
<path d="M35.008 20V10.622L37.798 11.9C38.11 11.492 38.5 11.144 38.968 10.856C39.436 10.556 40.006 10.406 40.678 10.406C41.362 10.406 41.944 10.556 42.424 10.856C42.916 11.156 43.288 11.57 43.54 12.098C43.804 12.626 43.936 13.238 43.936 13.934V20H41.164V14.798C41.164 14.342 41.086 13.976 40.93 13.7C40.786 13.412 40.588 13.202 40.336 13.07C40.096 12.938 39.832 12.872 39.544 12.872C39.268 12.872 38.992 12.938 38.716 13.07C38.44 13.202 38.212 13.412 38.032 13.7C37.864 13.976 37.78 14.342 37.78 14.798V20H35.008ZM50.5513 20.216C49.5553 20.216 48.6733 20 47.9053 19.568C47.1373 19.124 46.5313 18.53 46.0873 17.786C45.6553 17.042 45.4393 16.22 45.4393 15.32C45.4393 14.648 45.5653 14.012 45.8173 13.412C46.0693 12.812 46.4233 12.29 46.8793 11.846C47.3473 11.39 47.8933 11.036 48.5173 10.784C49.1413 10.532 49.8253 10.406 50.5693 10.406C51.5653 10.406 52.4473 10.628 53.2153 11.072C53.9953 11.504 54.6013 12.086 55.0333 12.818C55.4773 13.55 55.6993 14.372 55.6993 15.284C55.6993 15.992 55.5673 16.646 55.3033 17.246C55.0393 17.846 54.6673 18.368 54.1873 18.812C53.7073 19.256 53.1553 19.604 52.5313 19.856C51.9193 20.096 51.2593 20.216 50.5513 20.216ZM50.5693 17.876C51.0493 17.876 51.4693 17.756 51.8293 17.516C52.1893 17.276 52.4713 16.964 52.6753 16.58C52.8793 16.184 52.9813 15.764 52.9813 15.32C52.9813 14.864 52.8793 14.438 52.6753 14.042C52.4713 13.646 52.1833 13.334 51.8113 13.106C51.4513 12.866 51.0253 12.746 50.5333 12.746C50.0653 12.746 49.6453 12.86 49.2733 13.088C48.9133 13.316 48.6373 13.622 48.4453 14.006C48.2533 14.39 48.1573 14.816 48.1573 15.284C48.1573 15.752 48.2593 16.184 48.4633 16.58C48.6793 16.976 48.9673 17.294 49.3273 17.534C49.6993 17.762 50.1133 17.876 50.5693 17.876ZM63.1299 20.198C61.8819 20.198 60.8739 19.724 60.1059 18.776L57.2799 20.144V6.842H60.0519V12.008C60.4119 11.552 60.8319 11.174 61.3119 10.874C61.8039 10.562 62.4099 10.406 63.1299 10.406C63.9099 10.406 64.6239 10.604 65.2719 11C65.9199 11.396 66.4419 11.96 66.8379 12.692C67.2339 13.424 67.4319 14.294 67.4319 15.302C67.4319 16.31 67.2339 17.18 66.8379 17.912C66.4539 18.644 65.9319 19.208 65.2719 19.604C64.6239 20 63.9099 20.198 63.1299 20.198ZM62.3379 17.876C62.7819 17.876 63.1839 17.768 63.5439 17.552C63.9039 17.336 64.1859 17.036 64.3899 16.652C64.5939 16.256 64.6959 15.806 64.6959 15.302C64.6959 14.846 64.5999 14.426 64.4079 14.042C64.2159 13.646 63.9459 13.334 63.5979 13.106C63.2499 12.866 62.8299 12.746 62.3379 12.746C61.9059 12.746 61.5099 12.86 61.1499 13.088C60.8019 13.304 60.5199 13.604 60.3039 13.988C60.0999 14.36 59.9979 14.804 59.9979 15.32C59.9979 15.812 60.0999 16.25 60.3039 16.634C60.5199 17.018 60.8019 17.324 61.1499 17.552C61.5099 17.768 61.9059 17.876 62.3379 17.876ZM72.0641 20.198C71.3801 20.198 70.7561 20.108 70.1921 19.928C69.6401 19.748 69.0761 19.526 68.5001 19.262V16.886C68.8361 17.126 69.2021 17.348 69.5981 17.552C69.9941 17.744 70.3901 17.9 70.7861 18.02C71.1941 18.14 71.5721 18.2 71.9201 18.2C72.0881 18.2 72.2681 18.176 72.4601 18.128C72.6521 18.08 72.8201 17.996 72.9641 17.876C73.1081 17.756 73.1801 17.594 73.1801 17.39C73.1801 17.15 73.0661 16.958 72.8381 16.814C72.6101 16.658 72.3101 16.52 71.9381 16.4C71.5781 16.268 71.1941 16.136 70.7861 16.004C70.3901 15.86 70.0061 15.68 69.6341 15.464C69.2741 15.236 68.9801 14.948 68.7521 14.6C68.5241 14.24 68.4101 13.796 68.4101 13.268C68.4101 12.668 68.5601 12.158 68.8601 11.738C69.1601 11.306 69.5741 10.982 70.1021 10.766C70.6301 10.538 71.2361 10.424 71.9201 10.424C72.3161 10.424 72.6761 10.448 73.0001 10.496C73.3361 10.544 73.6601 10.622 73.9721 10.73C74.2841 10.826 74.6141 10.958 74.9621 11.126V13.502C74.6621 13.31 74.3261 13.136 73.9541 12.98C73.5821 12.812 73.2161 12.68 72.8561 12.584C72.5081 12.476 72.1901 12.422 71.9021 12.422C71.5901 12.422 71.3501 12.488 71.1821 12.62C71.0261 12.74 70.9481 12.89 70.9481 13.07C70.9481 13.298 71.0621 13.49 71.2901 13.646C71.5181 13.79 71.8121 13.928 72.1721 14.06C72.5321 14.18 72.9161 14.318 73.3241 14.474C73.7321 14.63 74.1161 14.822 74.4761 15.05C74.8481 15.278 75.1481 15.566 75.3761 15.914C75.6041 16.262 75.7181 16.7 75.7181 17.228C75.7181 17.828 75.5681 18.35 75.2681 18.794C74.9681 19.238 74.5421 19.586 73.9901 19.838C73.4501 20.078 72.8081 20.198 72.0641 20.198Z" fill="white"/>
<defs>
<linearGradient id="paint0_linear_1859_96" x1="-1.5" y1="2" x2="27" y2="27" gradientUnits="userSpaceOnUse">
<stop stop-color="#2040E0"/>
<stop offset="1" stop-color="#75117A"/>
</linearGradient>
</defs>
</svg>
